<svg width="24" height="24" viewBox="0 0 24 24" fill="none" xmlns="http://www.w3.org/2000/svg">
<path d="M13.2854 15.8573L13.2854 13.2864H10.7146V10.7146L13.2854 10.7146V13.2864L15.8573 13.2854L15.8573 15.8573H13.2854Z" fill="black"/>
<path d="M13.2854 10.7146V8.14272H15.8573V10.7146H13.2854Z" fill="currentColor"/>
<path d="M15.8573 8.14272V5.57089H18.4291V8.14272H15.8573Z" fill="currentColor"/>
<path d="M15.8573 18.4282V15.8573H18.4291V18.4282H15.8573Z" fill="currentColor"/>
<path d="M18.4291 5.57089L18.4291 3L21 3L21 5.57089H18.4291Z" fill="currentColor"/>
<path d="M18.4291 21V18.4282L21 18.4291V21H18.4291Z" fill="currentColor"/>
<path d="M10.7146 15.8573V13.2864H13.2854V10.7146L10.7146 10.7146V13.2864L8.14272 13.2854V15.8573H10.7146Z" fill="currentColor"/>
<path d="M10.7146 10.7146L10.7146 8.14272H8.14272L8.14272 10.7146L10.7146 10.7146Z" fill="currentColor"/>
<path d="M8.14272 8.14272V5.57089L5.57089 5.57089L5.57089 8.14272H8.14272Z" fill="currentColor"/>
<path d="M8.14272 18.4282V15.8573H5.57089L5.57089 18.4282H8.14272Z" fill="currentColor"/>
<path d="M5.57089 5.57089V3L3 3L3 5.57089H5.57089Z" fill="currentColor"/>
<path d="M5.57089 21V18.4282L3 18.4291L3 21H5.57089Z" fill="currentColor"/>
</svg>
