<svg width="11" height="11" viewBox="0 0 11 11" fill="none" xmlns="http://www.w3.org/2000/svg">
<path d="M4.71431 1.5715L4.71431 3.14294L3.14288 3.14294L3.14288 1.5715L4.71431 1.5715Z" fill="#43F872"/>
<path d="M3.14288 3.14294L3.14287 4.71444L1.57144 4.71444L1.57144 3.143L3.14288 3.14294Z" fill="#43F872"/>
<path d="M1.57144 4.71444L1.57143 6.28594L6.78907e-07 6.28594L7.47597e-07 4.71451L1.57144 4.71444Z" fill="#43F872"/>
<path d="M3.14287 6.28556L3.14287 7.857L1.57144 7.857L1.57143 6.28594L3.14287 6.28556Z" fill="#43F872"/>
<path d="M4.71431 7.85706L4.71431 9.4285L3.14288 9.4285L3.14287 7.857L4.71431 7.85706Z" fill="#43F872"/>
<path d="M6.28569 9.42856L6.28569 11L4.71426 11L4.71431 9.4285L6.28569 9.42856Z" fill="#43F872"/>
<path d="M6.28569 -2.06069e-07L6.28569 1.57144L4.71431 1.5715L4.71426 -2.74759e-07L6.28569 -2.06069e-07Z" fill="#43F872"/>
<path d="M11 4.71451L11 6.28594L6.78907e-07 6.28594L7.47597e-07 4.71451L11 4.71451Z" fill="#43F872"/>
</svg>
