<svg width="18" height="18" viewBox="0 0 18 18" fill="none" xmlns="http://www.w3.org/2000/svg">
<rect x="5.14258" width="2.57143" height="2.57143" fill="#FFCE33"/>
<rect x="7.71484" width="2.57143" height="2.57143" fill="#FFCE33"/>
<rect x="10.2852" width="2.57143" height="2.57143" fill="#FFCE33"/>
<rect x="10.2852" y="2.57141" width="2.57143" height="2.57143" fill="#FFCE33"/>
<rect x="12.8574" y="2.57141" width="2.57143" height="2.57143" fill="#FFCE33"/>
<rect x="12.8574" y="5.14282" width="2.57143" height="2.57143" fill="#FFCE33"/>
<rect x="15.4287" y="5.14282" width="2.57143" height="2.57143" fill="#FFCE33"/>
<rect x="5.14258" y="2.57141" width="2.57143" height="2.57143" fill="#FFCE33"/>
<rect x="5.14258" y="5.14282" width="2.57143" height="2.57143" fill="#FFCE33"/>
<rect x="7.71484" y="5.14282" width="2.57143" height="2.57143" fill="#FFCE33"/>
<rect x="7.71484" y="7.71423" width="2.57143" height="2.57143" fill="#FFCE33"/>
<rect x="10.2852" y="7.71423" width="2.57143" height="2.57143" fill="#FFCE33"/>
<rect x="12.8574" y="7.71423" width="2.57143" height="2.57143" fill="#FFCE33"/>
<rect x="15.4287" y="7.71423" width="2.57143" height="2.57143" fill="#FFCE33"/>
<rect x="7.71484" y="10.2858" width="2.57143" height="2.57143" fill="#FFCE33"/>
<rect x="10.2852" y="10.2858" width="2.57143" height="2.57143" fill="#FFCE33"/>
<rect x="12.8574" y="10.2858" width="2.57143" height="2.57143" fill="#FFCE33"/>
<rect x="15.4287" y="10.2858" width="2.57143" height="2.57143" fill="#FFCE33"/>
<rect x="7.71484" y="12.8572" width="2.57143" height="2.57143" fill="#FFCE33"/>
<rect x="7.71484" y="15.4286" width="2.57143" height="2.57143" fill="#FFCE33"/>
<rect x="10.2852" y="12.8572" width="2.57143" height="2.57143" fill="#FFCE33"/>
<rect x="10.2852" y="15.4286" width="2.57143" height="2.57143" fill="#FFCE33"/>
<rect x="12.8574" y="12.8572" width="2.57143" height="2.57143" fill="#FFCE33"/>
<rect x="5.14258" y="7.71423" width="2.57143" height="2.57143" fill="#FFCE33"/>
<rect x="5.14258" y="10.2858" width="2.57143" height="2.57143" fill="#FFCE33"/>
<rect x="5.14258" y="12.8572" width="2.57143" height="2.57143" fill="#FFCE33"/>
<rect x="5.14258" y="15.4286" width="2.57143" height="2.57143" fill="#FFCE33"/>
<rect x="2.57129" y="2.57141" width="2.57143" height="2.57143" fill="#FFCE33"/>
<rect x="2.57129" y="5.14282" width="2.57143" height="2.57143" fill="#FFCE33"/>
<rect y="5.14282" width="2.57143" height="2.57143" fill="#FFCE33"/>
<rect x="2.57129" y="7.71423" width="2.57143" height="2.57143" fill="#FFCE33"/>
<rect y="7.71429" width="2.57143" height="2.57143" fill="#FFCE33"/>
<rect x="2.57129" y="10.2858" width="2.57143" height="2.57143" fill="#FFCE33"/>
<rect y="10.2857" width="2.57143" height="2.57143" fill="#FFCE33"/>
<rect x="2.57129" y="12.8572" width="2.57143" height="2.57143" fill="#FFCE33"/>
</svg>
