<svg width="18" height="18" viewBox="0 0 18 18" fill="none" xmlns="http://www.w3.org/2000/svg">
<g clip-path="url(#clip0_703_3669)">
<path d="M1.075 6.86973L1.44544 7.19258M1.075 6.86973C0.581417 7.48224 0.658752 8.39498 1.24773 8.90827L2.56264 10.0543C3.36392 10.7526 4.4203 11.0485 5.45042 10.863L7.59588 10.4767L5.70179 11.4224C4.83115 11.8572 4.1906 12.671 3.95278 13.6445L3.4222 15.8164C3.32978 16.1947 3.38823 16.5958 3.58429 16.9286C3.98571 17.6101 4.84233 17.8241 5.49759 17.4066L8.92518 15.223C8.96429 15.198 9.01365 15.198 9.05277 15.223L12.5085 17.4246C12.8234 17.6252 13.202 17.6874 13.561 17.5975C14.3081 17.4105 14.768 16.629 14.5881 15.852L13.641 11.76C13.6302 11.7135 13.6455 11.6647 13.6805 11.6337L16.7613 8.90215M1.075 6.86973C1.31505 6.57181 1.66027 6.38686 2.03287 6.35653L6.05031 6.02955C6.09613 6.02582 6.13606 5.99567 6.15365 5.95151L7.70353 2.06061C7.99762 1.32227 8.81157 0.971679 9.52146 1.27754C9.86235 1.42442 10.1332 1.70609 10.2744 2.06061L11.8243 5.95151M16.7613 8.90215L16.3496 8.39995M16.7613 8.90215C17.0426 8.65274 17.2169 8.29713 17.2457 7.91388C17.3057 7.11712 16.7332 6.42068 15.9671 6.35833L11.9276 6.02955C11.8818 6.02582 11.8419 5.99567 11.8243 5.95151M11.8243 5.95151L11.238 6.20411" stroke="black" stroke-width="1.83333"/>
<path fill-rule="evenodd" clip-rule="evenodd" d="M8.59377 14.6601L5.16622 16.8439C4.80982 17.0709 4.3439 16.9545 4.12557 16.5838C4.01893 16.4028 3.98714 16.1846 4.03741 15.9789L4.568 13.807C4.75952 13.0229 5.2754 12.3676 5.9766 12.0174L9.71586 10.1503C9.89025 10.0633 9.9637 9.84576 9.88 9.66447C9.81223 9.51759 9.65895 9.43543 9.50463 9.46323L5.3423 10.2127C4.4962 10.365 3.62853 10.122 2.97039 9.5484L1.65548 8.40238C1.33513 8.12323 1.29308 7.62679 1.56153 7.29365C1.6921 7.13159 1.87986 7.03099 2.08252 7.0145L6.09996 6.68753C6.38378 6.66442 6.63113 6.47762 6.74008 6.20409L8.28991 2.31319C8.4499 1.91161 8.89263 1.72092 9.27873 1.88728C9.46413 1.96716 9.61146 2.12036 9.68823 2.31319L11.2381 6.20409C11.3471 6.47762 11.5944 6.66442 11.8782 6.68753L15.9178 7.0163C16.3345 7.05021 16.6458 7.42901 16.6132 7.86238C16.5975 8.07082 16.5027 8.26421 16.3497 8.39993L13.2689 11.1314C13.052 11.3236 12.9574 11.6264 13.0241 11.9145L13.9713 16.0064C14.0691 16.4291 13.819 16.8541 13.4126 16.9558C13.2173 17.0047 13.0114 16.9709 12.8402 16.8618L9.38445 14.6601C9.1418 14.5055 8.83635 14.5055 8.59377 14.6601Z" fill="url(#paint0_linear_703_3669)" stroke="url(#paint1_linear_703_3669)" stroke-width="1.22222"/>
<path style="mix-blend-mode:soft-light" fill-rule="evenodd" clip-rule="evenodd" d="M8.59377 14.6601L5.16622 16.8439C4.80982 17.0709 4.3439 16.9545 4.12557 16.5839C4.01893 16.4028 3.98714 16.1846 4.03741 15.9789L4.568 13.807C4.75952 13.0229 5.2754 12.3676 5.9766 12.0174L9.71586 10.1503C9.89025 10.0633 9.9637 9.84576 9.88 9.66447C9.81223 9.51759 9.65895 9.43543 9.50463 9.46323L5.3423 10.2127C4.4962 10.365 3.62853 10.122 2.97039 9.5484L1.65548 8.40238C1.33513 8.12323 1.29308 7.62679 1.56153 7.29365C1.6921 7.13159 1.87986 7.03099 2.08252 7.0145L6.09996 6.68753C6.38378 6.66442 6.63113 6.47762 6.74008 6.20409L8.28991 2.31319C8.4499 1.91161 8.89263 1.72092 9.27873 1.88728C9.46413 1.96716 9.61146 2.12036 9.68823 2.31319L11.2381 6.20409C11.3471 6.47762 11.5944 6.66442 11.8782 6.68753L15.9178 7.0163C16.3345 7.05021 16.6458 7.42901 16.6132 7.86238C16.5975 8.07082 16.5027 8.26421 16.3497 8.39993L13.2689 11.1314C13.052 11.3236 12.9574 11.6264 13.0241 11.9145L13.9713 16.0064C14.0691 16.4291 13.819 16.8541 13.4126 16.9558C13.2173 17.0047 13.0114 16.9709 12.8402 16.8618L9.38445 14.6601C9.1418 14.5055 8.83635 14.5055 8.59377 14.6601Z" stroke="url(#paint2_linear_703_3669)" stroke-width="2.44444"/>
</g>
<defs>
<linearGradient id="paint0_linear_703_3669" x1="0.0604441" y1="20.2699" x2="29.922" y2="-12.0848" gradientUnits="userSpaceOnUse">
<stop stop-color="#FDEB32"/>
<stop offset="0.439058" stop-color="#FEBD04"/>
<stop offset="1" stop-color="#D75902"/>
</linearGradient>
<linearGradient id="paint1_linear_703_3669" x1="18.7309" y1="2.59983" x2="6.1559" y2="10.9387" gradientUnits="userSpaceOnUse">
<stop stop-color="#DB5A00"/>
<stop offset="1" stop-color="#FF9145"/>
</linearGradient>
<linearGradient id="paint2_linear_703_3669" x1="20.4232" y1="2.15984" x2="8.76176" y2="8.99579" gradientUnits="userSpaceOnUse">
<stop stop-opacity="0"/>
<stop offset="0.395833" stop-opacity="0.85"/>
<stop offset="0.520833"/>
<stop offset="0.645833" stop-opacity="0.85"/>
<stop offset="1" stop-opacity="0"/>
</linearGradient>
<clipPath id="clip0_703_3669">
<rect width="18" height="18" fill="white"/>
</clipPath>
</defs>
</svg>
