<svg width="24" height="24" viewBox="0 0 24 24" fill="none" xmlns="http://www.w3.org/2000/svg">
<path d="M7 3H17V5H7V3Z" fill="currentColor"/>
<path d="M5 7V5H7V7H5Z" fill="currentColor"/>
<path d="M5 17H3V7H5V17Z" fill="currentColor"/>
<path d="M7 19H5V17H7V19Z" fill="currentColor"/>
<path d="M19 7H21V21H7V19H19V7Z" fill="currentColor"/>
<path d="M19 7V5H17V7H19Z" fill="currentColor"/>
<path d="M9 9V7H13V9H9Z" fill="currentColor"/>
<path d="M13 11V9H15V11H13Z" fill="currentColor"/>
<path d="M13 11V13H11V11H13Z" fill="currentColor"/>
<path d="M13 17V15H11V17H13Z" fill="currentColor"/>
</svg>
