<svg width="11" height="11" viewBox="0 0 11 11" fill="none" xmlns="http://www.w3.org/2000/svg">
<path d="M6.2857 1.5715L6.28569 3.14294L7.85713 3.14294L7.85713 1.5715L6.2857 1.5715Z" fill="#43F872"/>
<path d="M7.85713 3.14294L7.85713 4.71444L9.42856 4.71444L9.42856 3.143L7.85713 3.14294Z" fill="#43F872"/>
<path d="M9.42856 4.71444L9.42857 6.28594L11 6.28594L11 4.71451L9.42856 4.71444Z" fill="#43F872"/>
<path d="M7.85713 6.28556L7.85713 7.857L9.42856 7.857L9.42857 6.28594L7.85713 6.28556Z" fill="#43F872"/>
<path d="M6.28569 7.85706L6.28569 9.4285L7.85712 9.4285L7.85713 7.857L6.28569 7.85706Z" fill="#43F872"/>
<path d="M4.71431 9.42856L4.71431 11L6.28574 11L6.28569 9.4285L4.71431 9.42856Z" fill="#43F872"/>
<path d="M4.71431 2.06069e-07L4.71431 1.57144L6.2857 1.5715L6.28574 2.74759e-07L4.71431 2.06069e-07Z" fill="#43F872"/>
<path d="M-2.06078e-07 4.7145L-2.74767e-07 6.28594L11 6.28594L11 4.71451L-2.06078e-07 4.7145Z" fill="#43F872"/>
</svg>
